<svg width="24" height="24" viewBox="0 0 24 24" fill="none" xmlns="http://www.w3.org/2000/svg">
<path d="M12 0L2.78247 15.9788H21.2175L12 0ZM6.35247 14.3063H6.34497C6.29247 14.295 6.25497 14.2913 6.23622 14.2987C6.20997 14.3063 6.18372 14.3363 6.13497 14.3588L6.12747 14.3663C6.07872 14.3925 6.01122 14.4037 5.90247 14.3888C5.82747 14.3775 5.67372 14.355 5.57997 14.34C5.48997 14.325 5.45247 14.25 5.45997 14.2013C5.47497 14.085 5.56122 13.5075 5.57997 13.3912C5.60622 13.23 5.72622 13.1513 6.03747 13.3013C7.86372 14.1975 7.84497 12.6075 7.89372 12.4387L8.93247 6.8175C9.12372 5.89125 10.0687 5.775 10.2262 5.7825C10.4962 5.79375 10.68 5.83875 10.7325 5.81625C10.785 5.79 10.8525 5.67 11.0812 5.71125C11.3812 5.7675 11.535 5.7225 11.5312 5.9175L11.3737 6.6C11.3662 6.63 11.3325 6.80625 10.9837 6.68625C9.94872 6.3375 9.82872 7.08 9.81747 7.15125C9.81747 7.16625 8.74872 13.0162 8.74872 13.0162C8.36247 14.8462 6.78747 14.4262 6.35622 14.3025L6.35247 14.3063ZM10.23 14.1337C10.215 14.22 10.1287 14.2913 10.0425 14.2913H9.41622C9.32997 14.2913 9.26997 14.22 9.28497 14.1337L9.80997 11.2537C9.82497 11.1675 9.91122 11.0963 9.99747 11.0963H10.6237C10.71 11.0963 10.77 11.1675 10.755 11.2537L10.23 14.1337ZM10.815 10.0612H10.1887C10.1025 10.0612 10.0425 9.99 10.0575 9.90375L10.155 9.35625C10.17 9.27 10.2562 9.19875 10.3425 9.19875H10.9687C11.055 9.19875 11.115 9.27 11.1 9.35625L11.0025 9.90375C10.9875 9.99 10.9012 10.0612 10.815 10.0612ZM17.775 14.1412C17.7337 14.25 17.5687 14.3775 17.28 14.3025C17.1637 14.2725 16.9275 14.1525 16.815 14.1525C16.6875 14.1525 16.2937 14.3512 15.7537 14.3512C15.1462 14.3512 15.0412 14.0625 14.8612 14.0662C14.775 14.0662 14.3212 14.355 13.9387 14.3512C13.3087 14.34 12.99 13.0125 12.3712 13.0125C12.1987 13.0125 12.1237 13.0725 12.0712 13.2037L11.895 14.1337C11.88 14.22 11.7975 14.2913 11.7075 14.2913H11.0812C10.995 14.2913 10.935 14.22 10.95 14.1337L12.4537 5.8875C12.4687 5.80125 12.555 5.73 12.6412 5.73H13.2675C13.3537 5.73 13.4137 5.80125 13.3987 5.8875C13.3987 5.8875 12.3112 11.9062 12.2887 12.0075C12.2212 12.3225 13.1737 12.1275 13.5412 11.2838C13.6237 11.1112 13.7212 11.0925 13.7925 11.0925C13.8675 11.0925 14.235 11.0925 14.3325 11.0925C14.4712 11.0925 14.46 11.2725 14.4412 11.3438C14.2537 12.0938 13.365 12.555 13.3725 12.6488C13.3762 12.7425 13.9087 13.275 14.0137 13.4363C14.1187 13.5938 14.5125 13.5075 14.5125 13.2712C14.5125 11.9212 16.56 12.3263 16.71 12.33C16.8825 12.3375 16.8712 11.94 16.8637 11.8725C16.8562 11.805 16.71 11.7262 16.305 11.7262H15.1687C15.0712 11.7262 15 11.6625 15.015 11.5837L15.09 11.235C15.1012 11.1562 15.1912 11.0963 15.2887 11.0963C15.2887 11.0963 16.935 11.0775 17.1187 11.1488C17.625 11.3475 17.6437 11.7562 17.625 12.0637C17.6062 12.3712 17.4075 13.3388 17.4075 13.395C17.4075 13.56 17.6587 13.5225 17.7637 13.5525C17.8687 13.5825 17.8612 13.6988 17.8537 13.7438C17.8537 13.7438 17.8237 14.0363 17.7787 14.1412H17.775ZM16.7025 13.275C16.695 13.4963 16.3612 13.6725 15.9675 13.6912C15.5025 13.7137 15.2437 13.4887 15.2437 13.2712C15.2437 12.9712 15.705 12.8737 16.08 12.8888C16.455 12.9 16.7137 12.9825 16.7025 13.275ZM19.6162 11.0438C19.7587 11.1225 19.905 11.16 20.0587 11.16C20.2125 11.16 20.3587 11.1225 20.5012 11.0438C20.64 10.965 20.7525 10.8562 20.8312 10.7137C20.91 10.5712 20.9475 10.425 20.9475 10.2712C20.9475 10.1175 20.9062 9.9675 20.8275 9.825C20.7487 9.6825 20.6362 9.57375 20.4975 9.495C20.355 9.42 20.2087 9.37875 20.0587 9.37875C19.9087 9.37875 19.7625 9.41625 19.62 9.495C19.4775 9.57 19.3687 9.6825 19.2862 9.825C19.2075 9.9675 19.1662 10.1175 19.1662 10.2712C19.1662 10.425 19.2037 10.5712 19.2825 10.7137C19.3612 10.8562 19.47 10.965 19.6125 11.0438H19.6162ZM19.4175 9.9C19.485 9.78 19.575 9.69 19.695 9.62625C19.815 9.5625 19.935 9.52875 20.0587 9.52875C20.1825 9.52875 20.3025 9.5625 20.4225 9.62625C20.5425 9.69 20.6325 9.78 20.7 9.9C20.7675 10.02 20.8012 10.1438 20.8012 10.2712C20.8012 10.3987 20.7675 10.5225 20.7037 10.6388C20.64 10.755 20.5462 10.8488 20.43 10.9125C20.3137 10.98 20.19 11.01 20.0625 11.01C19.935 11.01 19.8112 10.9762 19.695 10.9125C19.5787 10.845 19.485 10.755 19.4212 10.6388C19.3575 10.5225 19.3237 10.3987 19.3237 10.2712C19.3237 10.1438 19.3575 10.02 19.425 9.9H19.4175ZM19.8225 10.3575H19.9125C19.965 10.3575 20.01 10.3687 20.0362 10.3912C20.0775 10.4212 20.13 10.4963 20.1975 10.6125L20.2837 10.7625H20.4712L20.355 10.575C20.2987 10.485 20.2537 10.425 20.2125 10.3837C20.1937 10.365 20.1637 10.3462 20.13 10.3312C20.2125 10.3237 20.28 10.2975 20.3287 10.245C20.3775 10.1925 20.4037 10.1325 20.4037 10.0612C20.4037 10.0125 20.3887 9.96375 20.3587 9.9225C20.3287 9.8775 20.2875 9.8475 20.2387 9.82875C20.19 9.81 20.1075 9.8025 19.995 9.8025H19.665V10.7587H19.8187V10.3538L19.8225 10.3575ZM19.8225 9.9375H19.9987C20.0737 9.9375 20.1262 9.94125 20.1525 9.9525C20.1787 9.96375 20.2012 9.97875 20.2162 10.0013C20.2312 10.0238 20.2387 10.05 20.2387 10.0763C20.2387 10.1213 20.2237 10.155 20.19 10.1812C20.1562 10.2075 20.0962 10.2225 20.0062 10.2225H19.8187V9.93375L19.8225 9.9375ZM3.19497 20.79C3.19497 20.94 3.24372 21.03 3.43872 21.03C3.56247 21.03 3.73497 21.015 3.88872 20.9888L3.94497 21.33C3.77247 21.3675 3.61497 21.3862 3.43872 21.3862C2.99997 21.3862 2.80497 21.1688 2.80497 20.8538V20.1262C2.80497 19.8112 2.99997 19.5938 3.43872 19.5938C3.61497 19.5938 3.77247 19.6125 3.94497 19.65L3.88872 19.9913C3.73872 19.965 3.56622 19.95 3.43872 19.95C3.24372 19.95 3.19497 20.04 3.19497 20.19V20.79ZM5.47497 20.8538C5.47497 21.1163 5.29122 21.3862 4.79997 21.3862C4.30872 21.3862 4.12497 21.1163 4.12497 20.8538V20.1262C4.12497 19.8637 4.30872 19.5938 4.79997 19.5938C5.29122 19.5938 5.47497 19.8637 5.47497 20.1262V20.8538ZM5.08122 20.16C5.08122 20.025 4.99497 19.9387 4.79997 19.9387C4.60497 19.9387 4.51872 20.0212 4.51872 20.16V20.82C4.51872 20.955 4.60497 21.0413 4.79997 21.0413C4.99497 21.0413 5.08122 20.9587 5.08122 20.82V20.16ZM6.14997 20.2125V21.3563H5.77497V19.6163H6.25497L6.82872 20.8162V19.6163H7.20372V21.3563H6.71997L6.14997 20.2125ZM8.05122 21.3862C7.84872 21.3862 7.63872 21.3412 7.48872 21.2738L7.55247 20.97C7.71372 21.0187 7.87497 21.0525 8.05497 21.0525C8.25747 21.0525 8.29497 21.015 8.29497 20.865C8.29497 20.7075 8.28747 20.6887 8.00247 20.6287C7.58247 20.5387 7.51872 20.4525 7.51872 20.0775C7.51872 19.7288 7.64247 19.59 8.11872 19.59C8.26872 19.59 8.45247 19.605 8.64747 19.6462L8.60997 19.9762C8.41122 19.9425 8.28372 19.9275 8.12622 19.9275C7.94997 19.9275 7.91247 19.9575 7.91247 20.0887C7.91247 20.2575 7.91997 20.2575 8.19372 20.325C8.66247 20.4375 8.68872 20.5275 8.68872 20.8725C8.68872 21.2175 8.57622 21.3862 8.05122 21.3862ZM9.68622 19.965V21.36H9.29247V19.965H8.82372V19.6163H10.1512V19.965H9.68247H9.68622ZM10.9762 20.8162H10.7475V21.3563H10.3537V19.6163H11.0775C11.5012 19.6163 11.6587 19.785 11.6587 20.1112V20.325C11.6587 20.5425 11.58 20.6887 11.4037 20.76L11.8237 21.3563H11.3587L10.9762 20.8162ZM11.2687 20.1488C11.2687 20.0175 11.22 19.965 11.0587 19.965H10.7475V20.4788H11.0587C11.2275 20.4788 11.2687 20.4187 11.2687 20.2875V20.1488ZM13.335 19.6163V20.85C13.335 21.1125 13.17 21.3825 12.6787 21.3825C12.1875 21.3825 12.0225 21.1125 12.0225 20.85V19.6163H12.4162V20.8125C12.4162 20.955 12.4837 21.0338 12.6787 21.0338C12.8737 21.0338 12.9412 20.9513 12.9412 20.8125V19.6163H13.335ZM14.4412 20.8575V21.36H14.0475V20.8575L13.5075 19.62H13.9162L14.2425 20.4263L14.5687 19.62H14.9775L14.4375 20.8575H14.4412ZM15.15 21.36V19.62H16.245V19.9688H15.54V20.2875H16.1887V20.6362H15.54V21.015H16.245V21.3638H15.15V21.36ZM16.92 20.2125V21.3563H16.545V19.6163H17.025L17.5987 20.8162V19.6163H17.9737V21.3563H17.49L16.92 20.2125ZM18.99 21.36H18.315V19.62H18.99C19.4175 19.62 19.5787 19.8375 19.5787 20.0737V20.91C19.5787 21.1425 19.4175 21.3638 18.99 21.3638V21.36ZM19.185 20.1788C19.185 20.0438 19.1362 19.9688 18.9412 19.9688H18.705V21.015H18.9412C19.1362 21.015 19.185 20.94 19.185 20.805V20.1825V20.1788ZM21.1875 20.8538C21.1875 21.1163 21.0037 21.3862 20.5125 21.3862C20.0212 21.3862 19.8375 21.1163 19.8375 20.8538V20.1262C19.8375 19.8637 20.0212 19.5938 20.5125 19.5938C21.0037 19.5938 21.1875 19.8637 21.1875 20.1262V20.8538ZM20.7975 20.16C20.7975 20.025 20.7112 19.9387 20.5162 19.9387C20.3212 19.9387 20.235 20.0212 20.235 20.16V20.82C20.235 20.955 20.3212 21.0413 20.5162 21.0413C20.7112 21.0413 20.7975 20.9587 20.7975 20.82V20.16ZM5.82747 23.4037C5.82747 23.5537 5.87622 23.6437 6.07122 23.6437C6.19497 23.6437 6.36747 23.6287 6.52122 23.6025L6.57747 23.9437C6.40497 23.9812 6.24747 24 6.07122 24C5.63247 24 5.43747 23.7825 5.43747 23.4675V22.74C5.43747 22.425 5.63247 22.2075 6.07122 22.2075C6.24747 22.2075 6.40497 22.2262 6.57747 22.2638L6.52122 22.605C6.37122 22.5787 6.19872 22.5637 6.07122 22.5637C5.87622 22.5637 5.82747 22.6538 5.82747 22.8038V23.4037ZM8.10747 23.4675C8.10747 23.73 7.92372 24 7.43247 24C6.94122 24 6.75747 23.73 6.75747 23.4675V22.74C6.75747 22.4775 6.94122 22.2075 7.43247 22.2075C7.92372 22.2075 8.10747 22.4775 8.10747 22.74V23.4675ZM7.71747 22.7738C7.71747 22.6388 7.63122 22.5525 7.43622 22.5525C7.24122 22.5525 7.15497 22.635 7.15497 22.7738V23.4338C7.15497 23.5688 7.24122 23.655 7.43622 23.655C7.63122 23.655 7.71747 23.5725 7.71747 23.4338V22.7738ZM8.78247 22.83V23.9738H8.40747V22.2337H8.88747L9.46122 23.4338V22.2337H9.83622V23.9738H9.35247L8.78247 22.83ZM10.1775 23.9738V22.2337H11.2837V22.5825H10.5712V22.9538H11.2312V23.3025H10.5712V23.9775H10.1775V23.9738ZM11.5425 23.9738V22.2337H11.9362V23.9738H11.5425ZM13.7325 23.9738H13.3237L13.23 23.6325H12.6487L12.555 23.9738H12.1462L12.6787 22.2337H13.2L13.7325 23.9738ZM12.735 23.3063H13.1362L12.9375 22.575L12.735 23.3063ZM14.3025 22.83V23.9738H13.9275V22.2337H14.4075L14.9812 23.4338V22.2337H15.3562V23.9738H14.8725L14.3025 22.83ZM16.1025 23.6512H16.875V23.9738H15.6562V23.655L16.4212 22.5525H15.69V22.23H16.86V22.5525L16.1025 23.6512ZM18.66 23.9738H18.2512L18.1575 23.6325H17.5762L17.4825 23.9738H17.0737L17.6062 22.2337H18.1275L18.66 23.9738ZM17.6625 23.3063H18.0637L17.865 22.575L17.6625 23.3063Z" fill="white"/>
</svg>
