<svg width="72" height="24" viewBox="0 0 72 24" fill="none" xmlns="http://www.w3.org/2000/svg">
<g clip-path="url(#clip0_48_1907)">
<path d="M11.5012 6.5325C12.21 6.37875 12.6562 6.9675 12.495 7.84875L11.295 14.265C11.13 15.1425 10.4625 15.7238 9.80999 15.5588L5.45624 14.6363C4.80374 14.4675 4.40249 13.6125 4.56749 12.735L5.27624 8.94C5.44124 8.06625 6.15374 7.215 6.86249 7.0575L11.5012 6.53625V6.5325Z" fill="#16768E"/>
<path d="M4.76248 6.58125L9.79873 5.94375C9.85498 6.15375 9.85873 6.435 9.80623 6.72L8.23873 15.0938C8.17873 15.4125 8.06248 15.6713 7.89748 15.8962L3.20998 14.91C2.54248 14.7375 2.13373 13.86 2.29873 12.96L3.13123 8.5125C3.29998 7.60875 4.03123 6.7425 4.75873 6.58125" fill="#870D4D"/>
<path d="M6.86249 7.0575L9.80249 6.7275V6.73875L8.23499 15.1163C8.23124 15.1538 8.21999 15.1875 8.21249 15.2213L5.45624 14.6363C4.80374 14.4713 4.40249 13.6125 4.56749 12.735L5.27624 8.94C5.44124 8.0625 6.15374 7.215 6.86249 7.0575Z" fill="#65124E"/>
<path d="M10.14 5.9025L9.79501 5.94375C9.84001 6.1575 9.86251 6.3825 9.80626 6.69375L8.23876 15.0675C8.17876 15.3863 8.05501 15.6675 7.89001 15.8925L8.24626 15.9675C8.91376 16.1363 9.60001 15.54 9.76501 14.64L11.1488 7.245C11.3175 6.345 10.86 5.7375 10.1325 5.9025" fill="#953C61"/>
<path d="M3.20997 14.91C2.54247 14.7375 2.13372 13.86 2.29872 12.96L3.13122 8.5125C3.29997 7.60875 4.03122 6.7425 4.75872 6.58125L9.79497 5.94375C9.66747 5.4675 9.28497 5.205 8.76747 5.31375L2.65497 6.0975C1.91247 6.26625 1.16247 7.155 0.98997 8.07375L0.0374698 13.185C-0.13503 14.1037 0.28497 15 0.96747 15.1762L6.68247 16.425C7.13247 16.5412 7.58247 16.3162 7.89372 15.8925L3.20997 14.91Z" fill="#589DAF"/>
<path d="M11.5013 6.5325L11.1563 6.57375C11.2013 6.76875 11.2013 6.9975 11.1563 7.24875L9.77251 14.6438C9.71626 14.9663 9.58501 15.255 9.41626 15.4763L9.81001 15.5625C10.4625 15.7275 11.13 15.1463 11.295 14.2688L12.495 7.8525C12.6563 6.97125 12.2138 6.3825 11.5013 6.53625" fill="#007D93"/>
<path d="M65.4375 17.55C64.215 17.55 64.4888 16.0613 64.4888 16.0613L65.6925 7.65H67.1663C67.3125 7.65 67.4363 7.665 67.53 7.6875C67.6275 7.71375 67.7063 7.755 67.7663 7.81125C67.8263 7.86 67.8675 7.935 67.89 8.02125C67.9125 8.11125 67.9275 8.1975 67.9313 8.325L67.9613 9.135C68.4038 8.57625 68.8838 8.2425 69.3825 7.92C69.885 7.59375 70.4063 7.4325 70.9463 7.4325C71.4 7.4325 71.7525 7.54125 71.9963 7.755L71.3063 9.93C71.2613 10.065 71.1975 10.1587 71.1113 10.2112C71.025 10.2675 70.92 10.2937 70.7925 10.2937C70.68 10.2937 70.5563 10.2787 70.41 10.2487C70.2675 10.2225 70.0838 10.2075 69.8588 10.2075C69.075 10.2075 68.4038 10.62 67.8375 11.4487L66.9675 17.5425H65.4338L65.4375 17.55Z" fill="white"/>
<path d="M18.3675 13.1738C18.3675 13.1738 17.7712 16.6463 17.685 17.0775C17.5575 17.6963 16.6462 17.625 16.6462 17.625H14.8762L16.7175 6.79125L16.9425 5.47125C17.5575 5.4075 18.1537 5.35875 18.7275 5.3325C19.3012 5.29875 19.8562 5.28375 20.3887 5.28375C21.2512 5.28375 21.9862 5.37 22.605 5.53875C23.22 5.7075 23.7225 5.94 24.1125 6.24375C24.5025 6.54375 24.7875 6.89625 24.9637 7.305C25.14 7.71 25.23 8.145 25.23 8.61C25.23 9.75 24.9525 10.665 24.4012 11.3475C23.8462 12.0263 23.07 12.5138 22.0725 12.8025L24.6487 18.3337C24.3787 18.4725 24.1125 18.57 23.8612 18.6337C23.61 18.6975 23.3325 18.7275 23.0287 18.7275C22.5112 18.7275 22.1287 18.63 21.8887 18.435C21.6525 18.2438 21.4275 17.9025 21.225 17.43L19.2825 13.1775H18.3675V13.1738ZM22.2937 8.775C22.2937 8.29875 22.095 7.92 21.6975 7.63875C21.3 7.3575 20.8087 7.215 20.2237 7.215C20.0325 7.215 19.86 7.215 19.6987 7.2225C19.5412 7.23 19.4175 7.24125 19.32 7.24875L18.7125 11.2163H19.4212C19.845 11.2163 20.2312 11.175 20.5912 11.0963C20.9475 11.0138 21.2475 10.8788 21.5025 10.6913C21.7537 10.5038 21.9487 10.2525 22.0875 9.94125C22.2225 9.63 22.29 9.24 22.29 8.775" fill="white"/>
<path d="M50.43 7.515C51.0637 7.515 51.63 7.61625 52.1325 7.81875C52.6312 8.02125 53.0475 8.31375 53.3812 8.69625C53.7112 9.07875 53.9512 9.54375 54.0937 10.1025C54.2362 10.6612 54.2662 11.2875 54.1837 11.9887C54.1575 12.21 54.1237 12.39 54.09 12.5287C54.0562 12.6637 54.0112 12.7762 53.9512 12.855C53.8912 12.9375 53.82 12.9937 53.73 13.0237C53.6437 13.0537 53.5387 13.0725 53.4075 13.0725H47.8087C47.805 13.89 47.9737 14.4787 48.3225 14.8462C48.6712 15.2175 49.2412 15.3975 49.8637 15.3975C50.1937 15.3975 50.4862 15.3563 50.7375 15.2775C50.985 15.195 51.21 15.105 51.4087 15.0037C51.6075 14.9025 51.6262 14.895 51.795 14.8125C51.96 14.73 52.6575 14.52 53.1337 15.135L53.655 15.9037C53.3175 16.2525 52.9687 16.53 52.6012 16.7475C52.2337 16.965 51.8625 17.1337 51.4912 17.2537C51.12 17.3775 50.7487 17.46 50.3812 17.5087C50.0175 17.55 49.6725 17.58 49.3462 17.58C48.675 17.58 48.06 17.4675 47.505 17.2463C46.9425 17.025 46.4737 16.6912 46.0837 16.2525C45.7012 15.8137 45.4162 15.27 45.2437 14.6175C45.0675 13.965 45.0337 13.2037 45.1387 12.3412C45.2175 11.6887 45.4012 11.07 45.69 10.485C45.9787 9.9 46.3537 9.38625 46.815 8.95125C47.2762 8.5125 47.8125 8.16375 48.4237 7.905C49.035 7.64625 49.7062 7.51875 50.4375 7.51875M50.2425 9.52875C49.695 9.52875 49.2675 9.61875 48.8212 10.005C48.465 10.3162 48.2175 10.7812 48.0487 11.3775H51.6975C51.7275 11.1412 51.7237 10.9162 51.6937 10.6987C51.6637 10.4812 51.5925 10.2825 51.48 10.11C51.3675 9.9375 51.2137 9.79875 51.0112 9.69C50.8087 9.585 50.5537 9.52875 50.25 9.52875" fill="white"/>
<path d="M61.635 17.1863C59.8162 17.7488 57.1012 18.0262 55.4512 16.8038C55.0387 16.5 54.84 16.05 54.735 15.7162C54.45 14.7862 54.6787 13.935 55.2337 13.2488C56.2237 12.0225 58.005 11.6175 59.67 11.4225C59.7637 11.4112 61.0875 11.31 61.0875 11.2612L61.1287 10.86C61.2075 10.2975 61.2412 10.1887 61.0237 9.93375C60.6487 9.49875 59.6137 9.63 59.0962 9.71625C58.635 9.795 57.5212 10.1812 57.2662 10.2337C57.0562 10.275 56.8312 10.2562 56.6287 10.1137C56.34 9.91125 55.8712 8.7 55.8675 8.69625C55.83 8.6175 56.5987 8.235 56.6512 8.20875C57.6225 7.74375 58.7025 7.4775 59.76 7.4475C60.6337 7.42125 61.5637 7.5525 62.3512 7.9425C62.7825 8.1525 63.1087 8.3925 63.3112 8.7975C63.525 9.2325 63.5212 9.735 63.495 10.1962C63.4537 10.9612 63.0975 13.4588 62.9062 15.0487C62.7487 16.3013 62.52 16.9163 61.6387 17.1863M58.26 15.72C58.71 15.7087 59.0662 15.6788 59.4525 15.5887C59.6887 15.5363 59.8687 15.495 60.0825 15.435C60.5662 15.2925 60.54 15.1312 60.5737 14.8837C60.6037 14.64 60.8325 13.1175 60.8325 13.1175C59.655 13.1625 58.1925 13.2112 57.4987 14.1075C57.375 14.2687 57.3037 14.475 57.2775 14.6625C57.225 15.0337 57.3262 15.2662 57.4987 15.4462C57.6712 15.6187 57.96 15.7237 58.2637 15.72" fill="white"/>
<path d="M45.1013 8.98875C44.7113 9.8025 40.9275 16.8337 40.7138 17.0925C40.5825 17.25 40.3613 17.55 39.3938 17.55C38.8913 17.55 38.4713 17.445 38.1825 17.34C37.7438 17.2312 37.665 16.6462 37.665 16.6462L36.4238 10.17C36.3975 10.0312 36.3525 9.9225 36.2925 9.8475C36.2325 9.7725 36.1088 9.735 35.925 9.735L34.7888 9.7275L34.9463 9.01125C35.0813 8.35875 35.31 7.91625 35.6325 7.67625C35.9588 7.44 36.2588 7.32 36.8138 7.32C37.2525 7.32 37.605 7.38 37.8713 7.49625C38.1338 7.61625 38.3363 7.7775 38.4788 7.98C38.6175 8.17875 38.7188 8.41875 38.7788 8.6925C38.8388 8.96625 38.8875 9.25875 38.9288 9.57375C38.9288 9.57375 39.66 14.3663 39.66 14.7075L42.9563 7.50375C43.1438 7.50375 44.0588 7.53 44.2875 7.56C44.6175 7.5975 45.6975 7.74375 45.0975 8.98875" fill="white"/>
<path d="M30.6188 7.515C31.2488 7.515 31.8188 7.61625 32.3175 7.81875C32.8163 8.02125 33.2325 8.31375 33.5625 8.69625C33.8925 9.07875 34.1325 9.54375 34.2788 10.1025C34.425 10.6575 34.455 11.2875 34.3688 11.9887C34.3425 12.21 34.3125 12.39 34.275 12.5287C34.2413 12.6637 34.1925 12.7762 34.1325 12.855C34.0725 12.9375 34.0013 12.9937 33.915 13.0237C33.8288 13.0537 33.72 13.0725 33.5888 13.0725H27.9938C27.9863 13.89 28.1588 14.4787 28.5075 14.8462C28.8563 15.2175 29.4263 15.3975 30.0488 15.3975C30.3825 15.3975 30.6675 15.3563 30.9225 15.2775C31.17 15.195 31.395 15.105 31.5938 15.0037C31.7925 14.9025 31.8075 14.895 31.9763 14.8125C32.1413 14.73 32.8425 14.52 33.3188 15.135L33.84 15.9037C33.5025 16.2525 33.15 16.53 32.7825 16.7475C32.415 16.965 32.0438 17.1337 31.6725 17.2537C31.2975 17.3775 30.93 17.46 30.5663 17.5087C30.1988 17.55 29.8575 17.58 29.5313 17.58C28.8638 17.58 28.2488 17.4675 27.69 17.2463C27.1313 17.025 26.6588 16.6912 26.2725 16.2525C25.89 15.8137 25.6088 15.27 25.4325 14.6175C25.2563 13.965 25.2225 13.2037 25.3238 12.3412C25.4025 11.6887 25.5863 11.07 25.875 10.485C26.1638 9.9 26.5388 9.38625 27 8.95125C27.4613 8.5125 27.9975 8.16375 28.6125 7.905C29.2238 7.64625 29.895 7.51875 30.6263 7.51875M30.4275 9.52875C29.8838 9.52875 29.4563 9.61875 29.0063 10.005C28.65 10.3162 28.4025 10.7812 28.2338 11.3775H31.8825C31.9088 11.1412 31.9088 10.9162 31.875 10.6987C31.845 10.4812 31.7738 10.2825 31.6613 10.11C31.5488 9.9375 31.395 9.79875 31.1925 9.69C30.99 9.585 30.735 9.52875 30.4275 9.52875Z" fill="white"/>
</g>
<defs>
<clipPath id="clip0_48_1907">
<rect width="72" height="24" fill="white"/>
</clipPath>
</defs>
</svg>
