<?xml version="1.0" encoding="UTF-8"?><svg id="a" xmlns="http://www.w3.org/2000/svg" viewBox="0 0 192 64"><defs><style>.c{fill:#65124e;}.d{fill:#fff;}.e{fill:none;}.f{fill:#16768e;}.g{fill:#589daf;}.h{fill:#953c61;}.i{fill:#870d4d;}.j{fill:#007d93;}</style></defs><path id="b" class="e" d="M4237.98,1156.49l564.08-3071.76H1518.68v-1086.39c0-1623.29,636.82-2247.61,2285.08-2247.61,511.97,0,924.03,12.46,1161.3,37.43v-2784.55c-449.53-124.89-1548.39-249.77-2185.21-249.77-3358.97,0-4907.36,1585.86-4907.36,5007.27v1323.62h-2072.82V1156.49h2072.82v6684.33c777.75,192.92,1590.97,296.01,2428.35,296.01,412.3,0,818.56-25.41,1217.83-73.62V1156.49h2719.3Z"/><path class="f" d="M30.67,17.42c1.89-.41,3.08,1.16,2.65,3.51l-3.2,17.11c-.44,2.34-2.22,3.89-3.96,3.45l-11.61-2.46c-1.74-.45-2.81-2.73-2.37-5.07l1.89-10.12c.44-2.33,2.34-4.6,4.23-5.02l12.37-1.39Z"/><path class="i" d="M12.7,17.55l13.43-1.7c.15.56.16,1.31.02,2.07l-4.18,22.33c-.16.85-.47,1.54-.91,2.14l-12.5-2.63c-1.78-.46-2.87-2.8-2.43-5.2l2.22-11.86c.45-2.41,2.4-4.72,4.34-5.15"/><path class="c" d="M18.3,18.82l7.84-.88s0,.03,0,.03l-4.18,22.34c-.01.1-.04.19-.06.28l-7.35-1.56c-1.74-.44-2.81-2.73-2.37-5.07l1.89-10.12c.44-2.34,2.34-4.6,4.23-5.02"/><path class="h" d="M27.04,15.74l-.92.11c.12.57.18,1.17.03,2l-4.18,22.33c-.16.85-.49,1.6-.93,2.2l.95.2c1.78.45,3.61-1.14,4.05-3.54l3.69-19.72c.45-2.4-.77-4.02-2.71-3.58"/><path class="g" d="M8.56,39.76c-1.78-.46-2.87-2.8-2.43-5.2l2.22-11.86c.45-2.41,2.4-4.72,4.34-5.15l13.43-1.7c-.34-1.27-1.36-1.97-2.74-1.68l-16.3,2.09c-1.98.45-3.98,2.82-4.44,5.27L.1,35.16c-.46,2.45.66,4.84,2.48,5.31l15.24,3.33c1.2.31,2.4-.29,3.23-1.42l-12.49-2.62Z"/><path class="j" d="M30.67,17.42l-.92.11c.12.52.12,1.13,0,1.8l-3.69,19.72c-.15.86-.5,1.63-.95,2.22l1.05.23c1.74.44,3.52-1.11,3.96-3.45l3.2-17.11c.43-2.35-.75-3.92-2.65-3.51"/><path class="d" d="M174.5,46.8c-3.26,0-2.53-3.97-2.53-3.97l3.21-22.43h3.93c.39,0,.72.04.97.1.26.07.47.18.63.33.16.13.27.33.33.56.06.24.1.47.11.81l.08,2.16c1.18-1.49,2.46-2.38,3.79-3.24,1.34-.87,2.73-1.3,4.17-1.3,1.21,0,2.15.29,2.8.86l-1.84,5.8c-.12.36-.29.61-.52.75-.23.15-.51.22-.85.22-.3,0-.63-.04-1.02-.12-.38-.07-.87-.11-1.47-.11-2.09,0-3.88,1.1-5.39,3.31l-2.32,16.25h-4.09Z"/><path class="d" d="M48.98,35.13s-1.59,9.26-1.82,10.41c-.34,1.65-2.77,1.46-2.77,1.46h-4.72l4.91-28.89.6-3.52c1.64-.17,3.23-.3,4.76-.37,1.53-.09,3.01-.13,4.43-.13,2.3,0,4.26.23,5.91.68,1.64.45,2.98,1.07,4.02,1.88,1.04.8,1.8,1.74,2.27,2.83.47,1.08.71,2.24.71,3.48,0,3.04-.74,5.48-2.21,7.3-1.48,1.81-3.55,3.11-6.21,3.88l6.87,14.75c-.72.37-1.43.63-2.1.8-.67.17-1.41.25-2.22.25-1.38,0-2.4-.26-3.04-.78-.63-.51-1.23-1.42-1.77-2.68l-5.18-11.34h-2.44ZM59.45,23.4c0-1.27-.53-2.28-1.59-3.03-1.06-.75-2.37-1.13-3.93-1.13-.51,0-.97,0-1.4.02-.42.02-.75.05-1.01.07l-1.62,10.58h1.89c1.13,0,2.16-.11,3.12-.32.95-.22,1.75-.58,2.43-1.08.67-.5,1.19-1.17,1.56-2,.36-.83.54-1.87.54-3.11"/><path class="d" d="M134.48,20.04c1.69,0,3.2.27,4.54.81,1.33.54,2.44,1.32,3.33,2.34.88,1.02,1.52,2.26,1.9,3.75s.46,3.16.24,5.03c-.07.59-.16,1.07-.25,1.44-.09.36-.21.66-.37.87-.16.22-.35.37-.59.45-.23.08-.51.13-.86.13h-14.93c-.01,2.18.44,3.75,1.37,4.73.93.99,2.45,1.47,4.11,1.47.88,0,1.66-.11,2.33-.32.66-.22,1.26-.46,1.79-.73.53-.27.58-.29,1.03-.51.44-.22,2.3-.78,3.57.86l1.39,2.05c-.9.93-1.83,1.67-2.81,2.25-.98.58-1.97,1.03-2.96,1.35-.99.33-1.98.55-2.96.68-.97.11-1.89.19-2.76.19-1.79,0-3.43-.3-4.91-.89-1.5-.59-2.75-1.48-3.79-2.65-1.02-1.17-1.78-2.62-2.24-4.36-.47-1.74-.56-3.77-.28-6.07.21-1.74.7-3.39,1.47-4.95.77-1.56,1.77-2.93,3-4.09,1.23-1.17,2.66-2.1,4.29-2.79,1.63-.69,3.42-1.03,5.37-1.03M133.98,25.41c-1.46,0-2.6.24-3.79,1.27-.95.83-1.61,2.07-2.06,3.66h9.73c.08-.63.07-1.23-.01-1.81-.08-.58-.27-1.11-.57-1.57-.3-.46-.71-.83-1.25-1.12-.54-.28-1.22-.43-2.03-.43"/><path class="d" d="M164.36,45.83c-4.85,1.5-12.09,2.24-16.49-1.02-1.1-.81-1.63-2.01-1.91-2.9-.76-2.48-.15-4.75,1.33-6.58,2.64-3.27,7.39-4.35,11.83-4.87.25-.03,3.78-.3,3.78-.43l.11-1.07c.21-1.5.3-1.79-.28-2.47-1-1.16-3.76-.81-5.14-.58-1.23.21-4.2,1.24-4.88,1.38-.56.11-1.16.06-1.7-.32-.77-.54-2.02-3.77-2.03-3.78-.1-.21,1.95-1.23,2.09-1.3,2.59-1.24,5.47-1.95,8.29-2.03,2.33-.07,4.81.28,6.91,1.32,1.15.56,2.02,1.2,2.56,2.28.57,1.16.56,2.5.49,3.73-.11,2.04-1.06,8.7-1.57,12.94-.42,3.34-1.03,4.98-3.38,5.7M155.36,41.92c1.2-.03,2.15-.11,3.18-.35.63-.14,1.11-.25,1.68-.41,1.29-.38,1.22-.81,1.31-1.47.08-.65.69-4.71.69-4.71-3.14.12-7.04.25-8.89,2.64-.33.43-.52.98-.59,1.48-.14.99.13,1.61.59,2.09.46.46,1.23.74,2.04.73"/><path class="d" d="M120.27,23.97c-1.04,2.17-11.13,20.92-11.7,21.61-.35.42-.94,1.22-3.52,1.22-1.34,0-2.46-.28-3.23-.56-1.17-.29-1.38-1.85-1.38-1.85l-3.31-17.27c-.07-.37-.19-.66-.35-.86-.16-.2-.49-.3-.98-.3l-3.03-.02.42-1.91c.36-1.74.97-2.92,1.83-3.56.87-.63,1.67-.95,3.15-.95,1.17,0,2.11.16,2.82.47.7.32,1.24.75,1.62,1.29.37.53.64,1.17.8,1.9.16.73.29,1.51.4,2.35,0,0,1.95,12.78,1.95,13.69l8.79-19.21c.5,0,2.94.07,3.55.15.88.1,3.76.49,2.16,3.81"/><path class="d" d="M81.65,20.04c1.68,0,3.2.27,4.53.81,1.33.54,2.44,1.32,3.32,2.34.88,1.02,1.52,2.26,1.91,3.75.39,1.48.47,3.16.24,5.03-.07.59-.15,1.07-.25,1.44-.09.36-.22.66-.38.87-.16.22-.35.37-.58.45-.23.08-.52.13-.87.13h-14.92c-.02,2.18.44,3.75,1.37,4.73.93.99,2.45,1.47,4.11,1.47.89,0,1.65-.11,2.33-.32.66-.22,1.26-.46,1.79-.73.53-.27.57-.29,1.02-.51.44-.22,2.31-.78,3.58.86l1.39,2.05c-.9.93-1.84,1.67-2.82,2.25-.98.58-1.97,1.03-2.96,1.35-1,.33-1.98.55-2.95.68-.98.11-1.89.19-2.76.19-1.78,0-3.42-.3-4.91-.89-1.49-.59-2.75-1.48-3.78-2.65-1.02-1.17-1.77-2.62-2.24-4.36-.47-1.74-.56-3.77-.29-6.07.21-1.74.7-3.39,1.47-4.95.77-1.56,1.77-2.93,3-4.09,1.23-1.17,2.66-2.1,4.3-2.79,1.63-.69,3.42-1.03,5.37-1.03M81.14,25.41c-1.45,0-2.59.24-3.79,1.27-.95.83-1.61,2.07-2.06,3.66h9.73c.07-.63.07-1.23-.02-1.81-.08-.58-.27-1.11-.57-1.57-.3-.46-.71-.83-1.25-1.12-.54-.28-1.22-.43-2.04-.43"/></svg>